<svg viewBox="0 0 308.87 417.17"><style>.a{fill:#3878ff;}.b{fill:none;stroke:#3878ff;stroke-miterlimit:10;}.c{fill:#ce6e6e;}</style><path class="a" d="M261.13,218.71a.09.09,0,0,1,.06,0,.48.48,0,0,0,0-.12ZM44,218.63a.41.41,0,0,0,0,.11l0,0A.41.41,0,0,1,44,218.63Z"/><path class="b" d="M123,242.61a2.5,2.5,0,0,1-2.5-2.5c0-1.84-7.54-6.16-22.17-6.16s-22.17,4.32-22.17,6.16a2.5,2.5,0,0,1-5,0c0-7.33,13.67-11.16,27.17-11.16s27.17,3.83,27.17,11.16A2.5,2.5,0,0,1,123,242.61Z"/><circle class="b" cx="104.23" cy="243.03" r="6.55"/><path class="b" d="M228.67,242.61a2.5,2.5,0,0,1-2.5-2.5c0-1.84-7.54-6.16-22.16-6.16s-22.17,4.32-22.17,6.16a2.5,2.5,0,0,1-5,0c0-7.33,13.67-11.16,27.17-11.16s27.16,3.83,27.16,11.16A2.49,2.49,0,0,1,228.67,242.61Z"/><circle class="b" cx="198.11" cy="243.04" r="6.55"/><path class="b" d="M152.14,318.6a2.28,2.28,0,0,0,.45,0h.16Z"/><path class="b" d="M182.59,305.81c-1,2.75-3.82,4.7-8.55,5.95l-.14,0a72.82,72.82,0,0,0-14,4.64,25.62,25.62,0,0,1-6.37,2.14l-.16,0-.61,0-.61,0-.16,0a25.62,25.62,0,0,1-6.37-2.14,72.93,72.93,0,0,0-14-4.64l-.14,0c-4.74-1.25-7.53-3.2-8.56-5.95a6.11,6.11,0,0,1,.62-5.43,3,3,0,0,1,4.2-.81,3,3,0,0,1,.81,4.14s.45,1.18,4.4,2.23a79.67,79.67,0,0,1,15,5,24.49,24.49,0,0,0,4.79,1.72h0a24.49,24.49,0,0,0,4.79-1.72,79.56,79.56,0,0,1,15-5c3.94-1.05,4.39-2.22,4.4-2.23a3,3,0,0,1,.8-4.14,3.06,3.06,0,0,1,4.21.81A6.15,6.15,0,0,1,182.59,305.81Z"/><path class="a" d="M152.75,318.64h.16a2.28,2.28,0,0,0,.45,0Z"/><path class="a" d="M158.5,365.43c-1.12,0-2.27,0-3.42-.09a85.86,85.86,0,0,1-25.6-5.58,3,3,0,0,1-1.62-1.63,2.94,2.94,0,0,1,0-2.29,3,3,0,0,1,1.62-1.63,3,3,0,0,1,2.29,0c.43.18,42.75,17.18,57.89-11.69a3,3,0,1,1,5.31,2.79C188.07,358.47,175.46,365.43,158.5,365.43ZM130.63,355a1.9,1.9,0,0,0-.77.16,2,2,0,0,0,0,3.69,84.6,84.6,0,0,0,25.27,5.51c1.13.06,2.27.09,3.37.09,16.56,0,28.87-6.77,35.59-19.59a2,2,0,0,0,.14-1.52,2,2,0,0,0-2.51-1.31,1.93,1.93,0,0,0-1.17,1c-15.57,29.66-58.72,12.32-59.16,12.15A1.82,1.82,0,0,0,130.63,355Z"/><path class="a" d="M164.58,17.5v1c8.88,0,18,2.09,27.75,6.37l-3.81,0c-34.75,0-43.56,8.25-43.92,8.61l-2.49,2.44,3.41-.75a161.07,161.07,0,0,1,31-3c16.38,0,39,2.83,53.52,16.29,14.38,13.31,20.13,25.91,22.43,34.14a46.17,46.17,0,0,1,1.65,9.6c-2.63-6.8-8-18.89-15.28-26.81l-3.66-4,2,5c1.36,3.42,3.81,8.88,6.64,15.2,5.48,12.19,14,31.19,16,39.56-8.9-14.59-12.9-15.38-13.65-15.38h-1.76l.9,1.51,14.44,24.12,2.62,11,.06.26.18.19,2.23,2.41-2.17,3.19-.95,1.4,1.69.16,1.18.11-1.13,1-.63.54.41.71,2.38,4.21-3.14,1.39-1.24.54.88,1,5.84,6.78-6.38,6-.5.48.27.64,1.65,4-1.52-1.14-2.57-1.92,1,3,2.8,8.3-4.05,9.76-.1.23,0,.25c.41,4.1.75,8.14,1,12l0,.43.34.28a1.51,1.51,0,0,1,.57,1.17v7.62a1.46,1.46,0,0,1-.2.73l0,.07-1,1.55h1.66c6.85,2.94,11.62,14.43,11.62,28,0,15-5.87,27.36-13.65,28.63l-.74.12-.09.75c-3.62,29.53-11,50.3-21.23,60.07C223.57,349.91,215,362.17,208.13,372c-11.22,16.05-19.33,27.64-37.68,27.64H134.73c-18.35,0-26.46-11.59-37.67-27.64l0-.06c-6.89-9.86-15.47-22.13-28.67-34.67-10.27-9.77-17.61-30.54-21.23-60.07l-.09-.74-.74-.13c-7.77-1.29-13.64-13.6-13.64-28.63,0-13.56,4.77-25,11.61-28l1.62,0-1-1.48v0l-.06-.09a1.47,1.47,0,0,1-.2-.74v-7.63a1.48,1.48,0,0,1,.56-1.16l.35-.27,0-.44c.77-11.46,2-22.4,3.65-32.52v-.2l-1.58-37.26,6.61-6.69,1-1L54,129.58l-2.5-1.08h5.58l-1.6-1.69-6-6.35,7.9,1.28,2.76.44-1.85-2.09-6-6.83c3.18,1.82,6.91,3.57,9.52,3.57a5,5,0,0,0,1.06-.1l1.9-.41L63.23,115a52.31,52.31,0,0,1-9.15-11.71c2.77,2.75,6,5.53,8.3,5.93l1.82.33-.72-1.7c-1.75-4.16-2.6-9.55-3-14,1.82,3.7,5,7.34,10.33,7.6l2.37.11L71.6,99.84c-5.12-5.78-8.12-15.57-3.53-24.36a26.63,26.63,0,0,0,8.34,14c4.5,3.94,9.16,5.34,12,5.34.25,0,.49,0,.73,0l2.4-.21L89.71,93c-1-.87-2.11-1.72-3.25-2.62-5.35-4.18-10.89-8.51-10.75-14.73C75.86,69,82.53,61,96.1,51.31L99.41,49C123.2,31.93,142,18.5,164.58,18.5v-1M153.23,126H152l-.38-.17c-.24-.12-24.82-11.22-48.47-11.22-13.67,0-24.43,3.65-32,10.85-9.13,8.68-17,35.69-20.49,70.49-.37,3.66-.7,7.43-1,11.2l-.07,1.07H69.14c19.85.1,50.84,2.85,62.55,5.55A15.78,15.78,0,0,1,143,223.53a23.06,23.06,0,0,1,1.33,4.6l.15.82H160.7l.15-.82a23.24,23.24,0,0,1,1.33-4.61,15.79,15.79,0,0,1,11.31-9.71c11.72-2.7,42.71-5.45,62.58-5.55h19.54l-.07-1.07c-.26-3.65-.58-7.34-1-11.28-3.52-34.76-11.37-61.73-20.48-70.4-7.58-7.21-18.35-10.86-32-10.86-23.93,0-48.21,11.11-48.45,11.22l-.39.18M200.57,276.8c15.12,0,32.15-6.34,37.7-10.89,6.8-5.56,8-32.35,8.21-40.43a11,11,0,0,0-11-11.25h-.12c-18,.2-48.32,2.62-60.54,5.44a9.7,9.7,0,0,0-7.13,6.16c-3.78,9,0,26.2,9,40.83,3.1,5,8.51,8.26,16.07,9.53a47.64,47.64,0,0,0,7.77.61m-95.95,0a47.64,47.64,0,0,0,7.77-.61c7.56-1.27,13-4.48,16.07-9.53,9-14.63,12.79-31.81,9-40.83a9.7,9.7,0,0,0-7.13-6.16c-12.22-2.82-42.58-5.24-60.54-5.44h-.12a11,11,0,0,0-11,11.26c.21,8.07,1.41,34.86,8.21,40.42,8.23,6.75,27.51,10.89,37.7,10.89m95.89,6a52.1,52.1,0,0,1-8.7-.69c-9.35-1.56-16.14-5.7-20.2-12.29-6.83-11.11-10.83-23-11.27-33.4l0-1H144.89l0,1c-.44,10.44-4.44,22.3-11.27,33.41-4.06,6.59-10.85,10.73-20.2,12.29a52.1,52.1,0,0,1-8.7.69c-15.91,0-34.34-6.33-41.57-12.23-3.8-3.12-10.22-13.52-10.49-48.26A3.48,3.48,0,0,0,50.26,219L49,218.62,48.94,220c-.19,5.17-.29,10.37-.29,15.48,0,48.59,8.4,85.59,22.46,99,13.48,12.83,22.2,25.29,29.19,35.29l0,.05c11.31,16.18,18.13,25.94,34.39,25.94l37.12,0c15.27-.56,22.32-10.65,33-25.92l.08-.11c7-10,15.68-22.42,29.15-35.23,14.06-13.37,22.46-50.37,22.46-99,0-4.92-.1-10.13-.3-15.49l-.05-1.34-1.27.43a3.49,3.49,0,0,0-2.36,3.27c-.27,34.75-6.68,45.15-10.48,48.26-3.52,2.87-9.94,5.95-17.17,8.23a83.7,83.7,0,0,1-24.4,4M46.69,273.64l-.19-1.81c-1.61-15.6-1.85-29.5-1.85-36.4,0-3.54.05-7.12.15-10.66l.07-2.35L43.13,224c-4.54,4.13-7.48,13.44-7.48,23.73,0,11.8,4,22.35,9.41,25.09l1.63.82m211.8,0,1.63-.82c5.46-2.73,9.42-13.29,9.42-25.1,0-10.28-2.93-19.6-7.47-23.73l-1.73-1.58.06,2.35c.09,3.66.14,7.24.14,10.66,0,6.91-.24,20.83-1.86,36.41l-.19,1.81M164.59,17.5c-24,0-43.79,15-69.07,33C59.79,76,78.69,85,89.07,93.75c-.21,0-.42,0-.64,0-6,0-17.66-6.56-19.88-21C61.86,82.5,65.09,94,70.85,100.5,60.48,100,59.1,85.75,59.1,85.75s-.23,13.75,3.46,22.5C58.41,107.5,49.65,97,49.65,97s5,11.5,12.91,18.75a3.84,3.84,0,0,1-.85.08c-5,0-15.06-7.33-15.06-7.33l10.83,12.25L46.65,119l8.07,8.5H46.65l6.92,3-6.92,7,1.6,37.69c-1.66,10.21-2.89,21.24-3.66,32.61a2.47,2.47,0,0,0-.94,1.94v7.63a2.43,2.43,0,0,0,.35,1.26.41.41,0,0,0,0,.09l0,0c-7.16,3-12.35,14.65-12.35,29,0,15.73,6.24,28.25,14.48,29.62C49,300.51,55,326,67.66,338c13.15,12.5,21.7,24.74,28.58,34.58,11.39,16.3,19.62,28.07,38.49,28.07h35.72c18.87,0,27.1-11.77,38.5-28.07,6.87-9.84,15.43-22.08,28.57-34.58,12.67-12,18.69-37.51,21.53-60.67,8.24-1.35,14.49-13.88,14.49-29.62,0-14.35-5.19-26-12.35-29a.09.09,0,0,0-.06,0l.06-.09a2.46,2.46,0,0,0,.35-1.26v-7.62a2.52,2.52,0,0,0-.94-2c-.27-4.06-.61-8.08-1-12l4.2-10.1L260.88,177l4.46,3.33L262.27,173l7.07-6.67-6.46-7.5L267,157l-2.92-5.17,2.92-2.5L263.5,149l2.61-3.84-2.77-3L260.69,131l-14.52-24.25s4.26,0,14.87,18.41c2.15-5.83-17.91-46.58-22.9-59.16C248.51,77.25,255,97.5,255,97.5s4-23.67-24.28-49.84c-14.37-13.29-36.2-16.56-54.2-16.56a160.84,160.84,0,0,0-31.25,3.06s8.48-8.32,43.22-8.32q4,0,8.58.16c-12-5.95-22.62-8.5-32.52-8.5ZM151.74,127h1.71l.59-.27c.36-.17,24.53-11.13,48-11.13,11.58,0,23,2.66,31.32,10.58,9.21,8.76,16.77,36.12,20.18,69.78q.56,5.52,1,11.25H236.05c-19.42.1-50.72,2.8-62.78,5.58a16.73,16.73,0,0,0-12,10.29,23.64,23.64,0,0,0-1.39,4.82H145.32a23.54,23.54,0,0,0-1.39-4.81,16.73,16.73,0,0,0-12-10.29c-12.06-2.78-43.36-5.48-62.78-5.58H50.65q.41-5.69,1-11.17c3.4-33.7,11-61.1,20.19-69.87,8.32-7.92,19.72-10.57,31.3-10.57,23.5,0,47.68,10.95,48,11.12l.6.27ZM200.57,275.8a46.14,46.14,0,0,1-7.6-.6c-7.27-1.22-12.45-4.27-15.39-9.06-8.84-14.38-12.6-31.18-8.94-39.92a8.78,8.78,0,0,1,6.43-5.58c11.92-2.75,42.16-5.21,60.33-5.41h.11a10,10,0,0,1,10,10.23c-.43,16.9-2.74,35.51-7.84,39.68-5.37,4.39-22,10.66-37.07,10.66Zm-95.95,0c-15.1,0-31.7-6.27-37.07-10.66-5.1-4.17-7.41-22.78-7.84-39.68a10,10,0,0,1,10-10.23h.11c18.17.2,48.41,2.66,60.33,5.41a8.78,8.78,0,0,1,6.43,5.58c3.66,8.74-.1,25.54-8.94,39.92-2.94,4.79-8.12,7.84-15.39,9.06a46.05,46.05,0,0,1-7.6.6Zm95.89,8c16.73,0,35.07-6.63,42.2-12.46,9.12-7.46,10.73-33.51,10.85-49a2.48,2.48,0,0,1,1.68-2.33c.19,5.1.3,10.26.3,15.45,0,48.32-8.28,85.05-22.15,98.24-13.59,12.92-22.33,25.44-29.36,35.49-10.8,15.45-17.44,24.95-32.22,25.49l-37.08,0c-15.74,0-22.45-9.6-33.57-25.51-7-10.05-15.78-22.57-29.36-35.49-13.87-13.19-22.15-49.92-22.15-98.24,0-5.19.1-10.35.29-15.44a2.46,2.46,0,0,1,1.68,2.33c.12,15.51,1.73,41.55,10.86,49,7.13,5.83,25.47,12.46,42.2,12.46a53.56,53.56,0,0,0,8.87-.7c9.65-1.62,16.67-5.92,20.88-12.76,7.68-12.49,11-24.44,11.42-33.89h13.49c.4,9.45,3.75,21.4,11.42,33.88,4.21,6.84,11.23,11.14,20.88,12.76a53.56,53.56,0,0,0,8.87.7Zm59.16-11.85a364.69,364.69,0,0,0,1.87-36.51c0-3.56-.05-7.13-.14-10.69,3.84,3.5,7.14,12,7.14,23,0,12.63-4.34,21.94-8.87,24.21Zm-214.16,0c-4.53-2.28-8.86-11.58-8.86-24.2,0-11,3.3-19.49,7.15-23-.1,3.56-.15,7.13-.15,10.69,0,7.23.26,21,1.86,36.5Z"/><path class="a" d="M69.14,207.26h0Z"/><path class="c" d="M164.92,1c12.86,0,25.83,3.33,39.63,10.17L210.33,14l-.84,3.34-.24.95.95.26C222.91,22,233.6,27.67,242,35.41c17.36,16.08,24.43,31.84,27.31,42.23,3.34,12.13,2.14,20.53,1.86,22.1l0,.25,0,.28.1.26c5.09,12.56,7.53,20.67,5.86,27.57l-.06.24.06.23,1.07,4.51.16.7.72.07,8.7.83,18.77,1.77L292.1,148.72l-6.62,5.66-.62.53.4.72.38.68L290,164l-.57.25.88,1,1.5,1.73-5.58,5.25-4.06,3.83-.5.48.27.64,9.87,23.57,11.35,27.09-23.52-17.59-.85-.64L277,208.29l.15,2.18c0,.43,0,.85.07,1.28l0,.59,0,.36.25.27c7.76,8.37,12,21.37,12,36.61,0,21.33-8.51,32.3-15.66,37.74l-.31.25-.07.39c-4.88,29.66-13.17,50.23-24.65,61.15-12,11.45-20,22.93-26.49,32.17-12,17.15-24.41,34.89-51.61,34.89H135.06c-27.22,0-39.62-17.75-51.61-34.91C77,372,69,360.55,57,349.11c-12.2-11.6-20.7-32.41-25.26-61.86l-.06-.39-.3-.24C21.59,278.78,16,264.3,16,246.89c0-14.6,4-27.27,11.23-35.69l.21-.24,0-.32A19.73,19.73,0,0,1,29,204.46l.06-.16,0-.17c.77-10.55,1.91-20.73,3.41-30.25v-.2l-1.68-39.49-.15-3.49L33,128.39l.68-.69L33,127,19.07,112.33,2.76,95.15l23.39,3.78,6.24,1,1.78.28-.7-1.66-.89-2.1,5.85-3.61L43,90l.5-.3,0-.59c-.08-2.1-.07-3.59-.06-4.14l.1-7.58L49,77.2l.77,0,.17-.76A37.14,37.14,0,0,1,55.69,63.2L67.11,46.52,78.54,29.85l1.55,10.09.26,1.69,1.34-1.05c1.5-1.17,3.09-2.35,4.86-3.62l3.29-2.34C114,17.33,136.86,1,164.92,1M75.43,55.59l-.73-4.7-.39-2.5-1.42,2.08L61.45,67.16a30,30,0,0,0-5.32,16.76l-4.74.19-1,0v.95c0,.93,0,4.21.32,8.39l-8.64,5.32-.74.45.34.79a69.43,69.43,0,0,0,3.6,7l-1.62,1.79-18.66-3-2.92-.47,2,2.15,19.27,20.3-5.28,5.34-.31.31,0,.43,1.72,40.29c-1.6,10-2.81,20.77-3.58,32a12.85,12.85,0,0,0-1.6,6.21v1.45C27.14,220.65,23,232.67,23,246.89c0,16.58,5.79,30.29,15.15,36C42.33,312.52,50.29,333.1,61.79,344c12.52,11.91,20.77,23.73,27.4,33.22,12,17.13,22.3,31.92,45.87,31.92h35.72c23.56,0,33.9-14.8,45.88-31.93,6.64-9.5,14.91-21.32,27.4-33.21,10.78-10.25,18.55-30.63,23.1-60.58,9.94-5.87,15.41-17.87,15.41-33.87,0-14.65-4.58-27.27-12.29-33.89v-2.9l0-.67c0-.49-.05-1-.08-1.45-.25-4.48-.61-9.2-1.06-14l1-2.3,13.74,10.28,2.94,2.2-1.42-3.39-12-28.68,8.1-7.63.69-.66-.62-.72L278,161.66l1.13-.51,1-.44-.54-1-3.61-6.41,11.62-9.94,1.79-1.53-2.35-.23-12.15-1.15-3-3.2-2.18-9.21.11-.3c1.83-5,.26-11.7-6.72-28.43l.24,0,.78-.06.13-.77c.06-.31,1.34-7.88-1.73-19-2.62-9.5-9.14-24-25.3-38.93-9.15-8.47-21.44-14.17-36.53-17l1.28-5,.2-.79-.73-.36C188.63,11.09,176.68,8,164.92,8c-25.82,0-46.77,15-71,32.33l-3.28,2.34A99.14,99.14,0,0,0,75.43,55.59M164.92,0c-28.39,0-51.36,16.43-75.68,33.82L86,36.15Q83.39,38,81.08,39.79L79.14,27.2,66.29,46,54.86,62.63A38.4,38.4,0,0,0,49,76.2l-6.44.26L42.43,85c0,.76,0,2.23.06,4.19L37.91,92l-6.58,4.06,1.22,2.89-6.24-1L0,93.69,18.34,113l13.93,14.67-2.59,2.62.17,3.92,1.68,39.49c-1.5,9.55-2.65,19.75-3.42,30.34a20.82,20.82,0,0,0-1.65,6.49C19.13,219.07,15,232.05,15,246.89c0,17.8,5.8,32.53,15.73,40.51,4.6,29.68,13.19,50.67,25.56,62.43,11.93,11.35,19.93,22.8,26.35,32,12.14,17.38,24.7,35.34,52.43,35.34h35.72c27.73,0,40.29-18,52.44-35.34,6.43-9.21,14.45-20.67,26.35-32,11.64-11.07,20-31.82,24.95-61.71,7.23-5.51,16.05-16.71,16.05-38.54,0-15.49-4.44-28.81-12.31-37.29l0-.59c0-.43,0-.86-.07-1.3l.85.64,26.46,19.79L292.7,200.35l-9.87-23.57,4.06-3.83,6.27-5.91L291,164.59l.34-.15-4.87-8.62-.38-.68,6.62-5.66,16.12-13.8-21.12-2-8.7-.83L278,128.34c1.67-6.88-.45-14.74-5.9-28.19l0-.25c.28-1.59,1.52-10.16-1.89-22.53-2.91-10.52-10.05-26.45-27.59-42.69-8.5-7.87-19.3-13.59-32.18-17.06l1-4.12L205,10.27C191.05,3.36,177.94,0,164.92,0ZM74.76,57.84A92.78,92.78,0,0,1,91.2,43.48l3.28-2.34C118.6,23.89,139.44,9,164.92,9c11.6,0,23.4,3.05,36.07,9.33l-1.54,6.07c15.41,2.68,27.83,8.33,37.08,16.89,16,14.8,22.43,29.09,25,38.47,2.92,10.59,1.85,17.78,1.71,18.57l-1.63.12c7.65,18.17,8.93,24.4,7.24,29l-.21.59,2.31,9.76,3.39,3.67,12.54,1.19-12.25,10.48,4,7.12-2.36,1,4.41,5.11-8.6,8.11,12.28,29.32-14.77-11.05-1.55,3.71c.44,4.68.81,9.44,1.08,14.24,0,.71.08,1.41.12,2.12v3.31l.17.14c7.42,6.2,12.12,18.34,12.12,33.28,0,16.9-6.18,28.07-15.33,33.25-3.42,22.77-10,48.21-22.87,60.48-12.56,11.95-20.86,23.82-27.53,33.36-11.82,16.91-22,31.5-45.06,31.5H135.06c-23,0-33.24-14.59-45-31.49-6.67-9.55-15-21.42-27.53-33.37-13.42-12.76-20.12-37.45-23.42-61.08C30,277,24,263.74,24,246.89c0-14.44,4.4-26.27,11.39-32.63v-1.89A11.87,11.87,0,0,1,37,206.45c.77-11.21,2-22.09,3.6-32.21l-1.72-40.39,6-6-19.93-21,19.19,3.1,2.49-2.73a71.21,71.21,0,0,1-3.92-7.53L51.8,94c-.41-4.6-.38-8.16-.37-8.91l5.71-.23a28.75,28.75,0,0,1,5.14-17.16L73.71,51l1.05,6.8Z"/></svg>
